<mxfile host="app.diagrams.net" agent="Mozilla/5.0 (Windows NT 10.0; Win64; x64) AppleWebKit/537.36 (KHTML, like Gecko) Chrome/130.0.0.0 Safari/537.36" version="24.8.3">
  <diagram name="Page-1" id="oXbddW3pj6L5tMEU3KGN">
    <mxGraphModel dx="1050" dy="522" grid="1" gridSize="10" guides="1" tooltips="1" connect="1" arrows="1" fold="1" page="1" pageScale="1" pageWidth="850" pageHeight="1100" math="0" shadow="0">
      <root>
        <mxCell id="0" />
        <mxCell id="1" parent="0" />
        <mxCell id="tEzoBaUA8KMfEC2Iuv2z-10" style="edgeStyle=orthogonalEdgeStyle;rounded=0;orthogonalLoop=1;jettySize=auto;html=1;" edge="1" parent="1" source="tEzoBaUA8KMfEC2Iuv2z-1" target="tEzoBaUA8KMfEC2Iuv2z-3">
          <mxGeometry relative="1" as="geometry" />
        </mxCell>
        <mxCell id="tEzoBaUA8KMfEC2Iuv2z-1" value="&lt;font style=&quot;font-size: 18px;&quot;&gt;star&lt;/font&gt;" style="ellipse;whiteSpace=wrap;html=1;" vertex="1" parent="1">
          <mxGeometry x="345" y="41" width="120" height="80" as="geometry" />
        </mxCell>
        <mxCell id="tEzoBaUA8KMfEC2Iuv2z-11" style="edgeStyle=orthogonalEdgeStyle;rounded=0;orthogonalLoop=1;jettySize=auto;html=1;entryX=0.5;entryY=0;entryDx=0;entryDy=0;" edge="1" parent="1" source="tEzoBaUA8KMfEC2Iuv2z-3" target="tEzoBaUA8KMfEC2Iuv2z-4">
          <mxGeometry relative="1" as="geometry" />
        </mxCell>
        <mxCell id="tEzoBaUA8KMfEC2Iuv2z-3" value="&lt;font style=&quot;font-size: 18px;&quot;&gt;enter any number&lt;/font&gt;" style="shape=parallelogram;perimeter=parallelogramPerimeter;whiteSpace=wrap;html=1;fixedSize=1;" vertex="1" parent="1">
          <mxGeometry x="320" y="160" width="170" height="60" as="geometry" />
        </mxCell>
        <mxCell id="tEzoBaUA8KMfEC2Iuv2z-12" style="edgeStyle=orthogonalEdgeStyle;rounded=0;orthogonalLoop=1;jettySize=auto;html=1;entryX=0.5;entryY=0;entryDx=0;entryDy=0;" edge="1" parent="1" source="tEzoBaUA8KMfEC2Iuv2z-4" target="tEzoBaUA8KMfEC2Iuv2z-7">
          <mxGeometry relative="1" as="geometry" />
        </mxCell>
        <mxCell id="tEzoBaUA8KMfEC2Iuv2z-22" value="&lt;font style=&quot;font-size: 14px;&quot;&gt;yes&lt;/font&gt;" style="edgeLabel;html=1;align=center;verticalAlign=middle;resizable=0;points=[];" vertex="1" connectable="0" parent="tEzoBaUA8KMfEC2Iuv2z-12">
          <mxGeometry x="-0.048" relative="1" as="geometry">
            <mxPoint as="offset" />
          </mxGeometry>
        </mxCell>
        <mxCell id="tEzoBaUA8KMfEC2Iuv2z-13" style="edgeStyle=orthogonalEdgeStyle;rounded=0;orthogonalLoop=1;jettySize=auto;html=1;exitX=1;exitY=0.5;exitDx=0;exitDy=0;entryX=0;entryY=0.5;entryDx=0;entryDy=0;" edge="1" parent="1" source="tEzoBaUA8KMfEC2Iuv2z-4" target="tEzoBaUA8KMfEC2Iuv2z-8">
          <mxGeometry relative="1" as="geometry" />
        </mxCell>
        <mxCell id="tEzoBaUA8KMfEC2Iuv2z-21" value="&lt;font style=&quot;font-size: 14px;&quot;&gt;no&lt;/font&gt;" style="edgeLabel;html=1;align=center;verticalAlign=middle;resizable=0;points=[];" vertex="1" connectable="0" parent="tEzoBaUA8KMfEC2Iuv2z-13">
          <mxGeometry x="0.046" y="-5" relative="1" as="geometry">
            <mxPoint y="1" as="offset" />
          </mxGeometry>
        </mxCell>
        <mxCell id="tEzoBaUA8KMfEC2Iuv2z-4" value="&lt;font style=&quot;font-size: 18px;&quot;&gt;check if the remainder of number divided by 2 = 0 ?&lt;/font&gt;" style="rhombus;whiteSpace=wrap;html=1;" vertex="1" parent="1">
          <mxGeometry x="320" y="270" width="170" height="150" as="geometry" />
        </mxCell>
        <mxCell id="tEzoBaUA8KMfEC2Iuv2z-7" value="&lt;font style=&quot;font-size: 18px;&quot;&gt;this is even number&lt;/font&gt;" style="rounded=0;whiteSpace=wrap;html=1;" vertex="1" parent="1">
          <mxGeometry x="330" y="470" width="150" height="70" as="geometry" />
        </mxCell>
        <mxCell id="tEzoBaUA8KMfEC2Iuv2z-19" style="edgeStyle=orthogonalEdgeStyle;rounded=0;orthogonalLoop=1;jettySize=auto;html=1;entryX=1;entryY=0.5;entryDx=0;entryDy=0;" edge="1" parent="1" source="tEzoBaUA8KMfEC2Iuv2z-8" target="tEzoBaUA8KMfEC2Iuv2z-9">
          <mxGeometry relative="1" as="geometry">
            <Array as="points">
              <mxPoint x="640" y="650" />
            </Array>
          </mxGeometry>
        </mxCell>
        <mxCell id="tEzoBaUA8KMfEC2Iuv2z-8" value="&lt;font style=&quot;font-size: 18px;&quot;&gt;this is odd number&lt;/font&gt;" style="rounded=0;whiteSpace=wrap;html=1;" vertex="1" parent="1">
          <mxGeometry x="570" y="308" width="140" height="75" as="geometry" />
        </mxCell>
        <mxCell id="tEzoBaUA8KMfEC2Iuv2z-9" value="&lt;font style=&quot;font-size: 18px;&quot;&gt;end&lt;/font&gt;" style="ellipse;whiteSpace=wrap;html=1;" vertex="1" parent="1">
          <mxGeometry x="362" y="610" width="120" height="80" as="geometry" />
        </mxCell>
        <mxCell id="tEzoBaUA8KMfEC2Iuv2z-14" style="edgeStyle=orthogonalEdgeStyle;rounded=0;orthogonalLoop=1;jettySize=auto;html=1;entryX=0.363;entryY=0.01;entryDx=0;entryDy=0;entryPerimeter=0;" edge="1" parent="1" source="tEzoBaUA8KMfEC2Iuv2z-7" target="tEzoBaUA8KMfEC2Iuv2z-9">
          <mxGeometry relative="1" as="geometry" />
        </mxCell>
      </root>
    </mxGraphModel>
  </diagram>
</mxfile>
